<svg xmlns="http://www.w3.org/2000/svg" width="560" height="315">
    <g fill="none" fill-rule="evenodd">
        <path fill="#000" fill-rule="nonzero" d="M0 0h560v315H0z"/>
        <path d="M270 172v-30l27 15-27 15zm49.85-48.85C311.897 121 280 121 280 121s-31.896 0-39.85 2.15c-4.389 1.182-7.845 4.667-9.018 9.093C229 140.264 229 157 229 157s0 16.735 2.132 24.757c1.173 4.426 4.629 7.91 9.017 9.094C248.104 193 280 193 280 193s31.896 0 39.85-2.149c4.389-1.183 7.845-4.668 9.018-9.094C331 173.735 331 157 331 157s0-16.736-2.132-24.757c-1.173-4.426-4.629-7.91-9.017-9.093z"
              fill="#C2C2C2"/>
    </g>
</svg>