<svg xmlns="http://www.w3.org/2000/svg" viewBox="0 0 1024 1008"
     style="fill: rgb(255, 255, 255);" original_string_length="10140" width="1024px" height="1008px">
    <path d="M98.845 257.906c29.321-47.347 65.655-88.117 108.09-123.455 38.307-31.898 80.48-57.33 127.153-75.233 28.393-10.89 57.514-18.978 87.458-23.97 23.642-3.943 47.434-6.508 71.486-6.735 21.495-.203 42.934 0 64.337 2.136 41.111 4.103 81.03 13.131 119.708 27.846 38.259 14.556 73.723 34.092 106.609 58.346 38.721 28.558 72.696 62.007 102.16 100.045 42.106 54.359 70.433 115.141 84.684 182.4 8.667 40.907 12.084 82.347 10.254 124.094-3.099 70.676-19.62 137.931-53.21 200.541-18.116 33.766-40.283 64.729-65.91 93.221-39.13 43.505-83.925 79.859-135.73 107.3-45.451 24.076-93.711 39.545-144.614 46.957-22.448 3.27-44.964 4.698-67.643 5.133-41.492.795-82.42-3.233-122.731-12.923-72.004-17.307-135.551-51.025-191.483-99.406-39.613-34.267-73.655-73.32-101.014-118.003-26.67-43.558-45.333-90.4-55.687-140.47-4.687-22.665-8.08-45.485-9.369-68.66-.628-11.303-1.13-22.645-1.145-33.907-.024-18.441.578-36.938 2.67-55.316 3.165-27.812 8.24-55.265 16.13-82.138 11.133-37.916 26.99-73.766 47.797-107.803m288.116 241.62c-26.665-31.28-59.81-54.863-93.044-78.34-1.067-.754-2.153-1.698-3.594-.643-1.917 1.403-3.815.493-5.714-.095-62.354-19.286-124.704-38.584-187.077-57.807-2.582-.796-4.697-1.507-4.055-5.056a10.587 10.587 0 0 0-1.223 2.557C75.868 408.405 69.247 458.11 69.99 508.956c.356 24.346 2.28 48.52 6.35 72.526 7.9 46.576 23.194 90.554 46.381 131.737 28.641 50.87 66.451 93.979 111.374 131.002a422.223 422.223 0 0 0 83.897 53.926c20.095 9.788 40.948 17.723 62.424 23.97 1.808.526 3.893 1.525 5.003-1.526-.723-.522-1.306-1.23-2.023-1.412-5.257-1.34-4.966-4.104-3.14-8.505 6.698-16.15 12.512-32.632 17.538-49.398 10.687-35.648 17.965-72.007 22.692-108.876 2.942-22.944 6.037-45.903 6.227-69.094.162-19.822.477-39.655-.997-59.453-1.36-18.26-2.624-36.528-4.193-54.77-.682-7.915-1.112-15.834-4.708-23.34-7.902-16.486-17.569-31.758-29.853-46.218m555.895 44.964c.581-7.465 1.486-14.92 1.688-22.395.87-32.181-.595-64.222-5.837-96.056-6.152-37.358-16.894-73.27-33.02-107.544-.574-1.22-.557-3.046-2.695-3.37-.678.872-1.418 1.749-2.077 2.683-14.43 20.428-31.882 37.97-51.168 53.785-26.993 22.134-56.422 40.77-85.608 59.757-33.96 22.094-67.848 44.331-96.08 73.806-9.239 9.644-19.072 18.875-23.302 32.529-7.025 22.669-14.034 45.2-11.463 69.4.264 2.48.336 4.984.392 7.479.715 31.797.828 63.601 2.26 95.391 1.814 40.261 4.97 80.355 10.16 120.343 3.41 26.27 9.695 51.241 23.95 73.88 2.262 3.591 3.952 4.167 7.865 2.493 49.783-21.298 93.588-51.44 132.406-89.008 47.347-45.823 84.33-98.603 107.591-160.573 13.536-36.06 21.72-73.31 24.938-112.6M611.281 420.11c-1.891-18.715-3.549-37.464-6.626-56.03-2.003-12.088-2.94-24.307-8.626-35.718-18.086-36.293-39.265-70.785-60.26-105.393-1.676-2.761-2.75-6.012-5.879-8.61-3.603 6.751-6.915 13.226-10.468 19.565-16.37 29.203-32.862 58.336-49.171 87.572-3.386 6.07-6.902 12.075-8.08 19.218-6.163 37.345-8.82 75.03-10.779 112.755-1.208 23.272-2.235 46.567-2.405 69.89-.096 13.14-1.665 26.29-.162 39.417 3.351 29.28 6.257 58.584 7.51 88.049 1.1 25.827.651 51.595-.812 77.398-.84 14.793-4.227 29.447-3.22 44.287 1.555 22.915 4.513 45.696 7.882 68.422 4.64 31.306 10.401 62.377 18.596 92.974.907 3.388 2.37 5.01 6.032 5.227 26.845 1.596 53.558.193 80.218-3.019 2.594-.313 3.534-1.903 4.649-3.853 14.006-24.506 23.463-50.741 29.517-78.22 1.567-7.11 4.567-14.4 3.202-21.588-2.982-15.708-5.113-31.496-7.113-47.34-3.36-26.622-5.505-53.3-5.207-80.143.11-9.824.377-19.646.62-29.468.12-4.823-.792-9.571-.38-14.457 1.313-15.592 3.405-31.03 6.246-46.438 3.707-20.108 6.715-40.363 12.521-59.999 4.195-14.186 8.231-27.9 7.339-43.328-1.74-30.076-2.78-60.204-5.144-91.17M566.697 180.9c20.051 40.694 34.142 83.439 44.092 127.63 2.549 11.323 4.067 22.844 8.816 33.703 17.727 40.536 29.046 82.544 27.521 127.276-.174 5.094-.588 10.18-.89 15.27 17.312-41.802 36.845-82.272 58.795-121.576 32.032-57.353 67.534-112.525 104.934-166.498 4.248-6.129 4.204-6.105-1.117-11.261-27.059-26.222-56.917-48.713-89.733-67.24-41.14-23.225-85.075-38.599-131.604-46.653-2.226-.385-3.739.167-5.196 1.926-4.144 5-8.45 9.866-12.71 14.767-1.478 1.7-2.18 3.599-2.312 5.89-1.156 20.046-5.105 39.564-11.51 58.57-1.043 3.093-.966 5.57.67 8.468 3.52 6.232 6.627 12.695 10.244 19.728M126.769 284.22c-11.382 19.749-21.51 40.082-29.312 61.739l157.81 48.728c-1.19-2.127-2.723-3.376-4.304-4.56-18.828-14.109-36.736-29.267-53.08-46.23-20.897-21.688-38.024-45.923-49.383-73.938-4.57-11.272-6.815-9.358 6.671-14.31 3.414-1.253 4.847-.054 5.99 2.955 1.713 4.512 3.55 8.987 5.572 13.369 15.996 34.66 41.06 62.014 69.87 86.288 28.454 23.977 59.572 44.373 89.529 66.33 27.456 20.126 54.129 41.16 75.764 67.79 4.258 5.24 8.208 10.732 12.489 16.356.185-.791.364-1.125.319-1.424-3.636-24.173-5.816-48.587-11.619-72.402-8.579-35.21-20.728-69.187-35.7-102.173-29.55-65.104-70.871-121.548-124.513-168.862-7.066-6.233-4.9-6.897-12.787-.308-41.001 34.257-75.67 73.976-103.316 120.652M413.483 74.15c-55.666 11.456-106.654 33.591-152.987 66.147.726 2.698 2.374 3.676 3.7 4.88a483.398 483.398 0 0 1 37.865 38.439c56.573 64.242 91.406 139.381 111.14 222.072.62 2.599 1.473 5.142 2.563 8.903.854-2.662 1.336-3.901 1.649-5.181 5.283-21.592 13.166-42.246 22.266-62.486 3.257-7.243 7.533-14.016 8.904-22.14 2.186-12.956 4.627-25.893 7.632-38.68 9.674-41.156 23.167-80.99 42.426-118.727 1.776-3.48 1.839-6.238.017-9.726-14.451-27.668-27.13-56.083-35.213-86.35-.933-3.496-2.952-4.312-6.252-3.977-14.413 1.464-28.68 3.839-43.71 6.826m460.624 188.211c-14.37-21.204-30.211-41.199-48.519-60.097C763.702 292.33 705.535 383.507 664.79 484.69c2.304-1.278 4.233-2.81 6.036-4.479 16.055-14.857 33.556-27.86 51.518-40.277 32.195-22.256 65.956-42.183 97.505-65.393 25.055-18.433 48.41-38.669 66.529-64.295 4.713-6.666 4.68-6.683 11.904-3.384.22.1.589-.128 1.432-.34-7.118-15.371-16.101-29.5-25.607-44.16m-695.46-80.217c-7.423 7.431-14.393 15.273-21.286 23.195-33.324 38.294-59.658 80.826-78.432 128.058-18.7 47.052-27.997 96.072-30.405 146.41a469.754 469.754 0 0 0 1.499 66.373c2.54 27.067 6.752 53.784 13.84 80.021 15.373 56.897 41.389 108.512 78.046 154.607 57.929 72.844 128.91 127.689 218.117 157.36 40.604 13.507 82.355 20.505 124.906 22.321 40.526 1.73 80.828-1.158 120.663-9.549 34.226-7.21 67.18-18.099 98.658-33.277 49.93-24.076 93.433-57 131.973-96.68 30.599-31.504 56.847-66.249 77.523-105.016 22.03-41.309 36.846-85.121 44.562-131.365 3.458-20.727 5.68-41.555 6.29-62.513.49-16.799.29-33.609-.596-50.44-1.026-19.502-3.174-38.856-6.748-57.97-6.973-37.302-18.356-73.284-34.854-107.556-18.333-38.081-41.712-72.778-69.742-104.39-33.513-37.798-71.437-70.326-114.866-96.26-47.454-28.338-98.57-46.578-153.147-55.229-6.35-1.006-12.645-2.309-19.194-2.496-.846 3.604.616 4.577 3.721 5.034 11.84 1.74 23.677 3.42 35.426 5.847 48.119 9.94 93.274 27.47 135.055 53.214 64.643 39.83 117.17 92.126 157.191 156.644 32.41 52.248 51.86 109.157 59.713 170.202 4.269 33.185 4.88 66.344 2.766 99.638-2.043 32.171-7.626 63.75-16.64 94.675-18.696 64.137-51.426 120.424-95.94 170.007-29.884 33.289-63.512 62.217-101.349 86.156-33.57 21.24-69.442 37.477-107.593 48.525a444.822 444.822 0 0 1-96.68 16.754c-41.227 2.538-82.22.905-122.855-6.777-42.493-8.033-82.95-22-121.2-42.276-51.897-27.508-96.093-64.57-134.667-108.57-23.388-26.678-43.311-55.767-59.717-87.234-18.834-36.123-32.152-74.224-39.935-114.185-7.218-37.062-9.873-74.445-8.41-112.267 1.207-31.249 5.186-61.999 12.392-92.33 8.235-34.664 20.68-67.849 37.622-99.21 37.152-68.769 88.74-124.654 153.132-168.59 57.448-39.197 121.112-62.248 190.172-70.528 4.214-.505 8.522-.456 12.61-3.567 3.387-2.579 9.523-4.305 13.117-1.625 3.2 2.387 5.87 2.49 9.017 2.297 21.33-1.306 42.617-.68 63.908.902 5.082.377 9.962-1.383 14.86-2.712-11.53-2.186-23.148-3.019-34.733-3.33-34.668-.934-69.16.784-103.452 6.695-39.325 6.778-77.007 18.526-112.95 35.707-49.379 23.603-92.578 55.855-131.388 95.3M551.064 69.65c-.566-3.057-2.935-3.13-5.335-3.33-11.608-.969-23.243-1.176-34.88-1.317-6.906-.083-13.813-.015-20.72-.015l-.547 1.46c13.636 15.682 26.68 31.834 38.872 49.266 5.995-8.159 10.825-16.038 16.962-22.717 6.241-6.793 7.203-14.165 5.648-23.347m44.131 847.959-7.04 14.992c16.046-2.27 30.627-6.076 45.135-10.198 3.183-.904 2.27-3.067 1.34-5.171-4.915-11.114-9.587-22.32-13.674-33.775-2.099-5.883-4.611-11.62-6.936-17.422-5.93 17.406-11.187 34.509-18.825 51.574M494.957 214.36c-7.906 20.534-14.906 41.344-20.018 63.612 1.154-.78 1.514-.895 1.659-1.138 14.77-24.939 29.103-50.12 42.196-75.989.77-1.519 1.594-3.204.764-4.768-2.755-5.189-5.72-10.266-9.092-16.254-6.427 11.61-10.66 22.794-15.51 34.537m53.954-33.47c-.552-.772-.77-1.913-2.314-1.878-2.54 3.59-3.412 8.12-5.664 11.946-2.217 3.764-1.68 6.986.575 10.637 8.212 13.295 16.17 26.746 24.195 40.156 6.491 10.845 12.943 21.715 19.412 32.574-8.787-32.236-20.617-63.213-36.204-93.434M442.97 849.54c-.016 3.16-.05 6.322-.045 9.482.03 23.126.078 46.251.086 69.377.001 2.883.605 6.261-3.963 6.622l23.844 2.517c-8.27-32.966-14.869-65.454-19.894-98.328 0 3.118 0 6.235-.028 10.33m-6.33-417.346c.675-13.435 1.318-26.872 3.117-40.851-13.644 28.525-16.544 81.577-6.078 106.02.25-21.407 1.413-42.828 2.96-65.17m49.838-340.783c6.527 18.104 14.184 35.695 23.533 53.098 3.566-4.013 5.555-8.217 8.029-12.09.945-1.48.47-2.878-.42-4.185-9.728-14.27-20.116-28.023-31.677-41.077-.924 1.57.302 2.488.535 4.254M409.25 911.688l-7.847 15.651c6.542 2.044 12.386 3.533 19.089 3.787l3.927-52.267c-4.894 10.855-9.722 21.57-15.169 32.83m123.926-742.96c3.99-10.162 2.579-16.66-5.112-22.047-2.656 4.585-5.305 9.138-7.926 13.706-.502.874-.893 1.863-.367 2.836 2.71 5.016 5.148 10.205 9.125 15.604 1.57-3.711 2.772-6.555 4.28-10.098m8.292-42.892c-3.593 5.226-3.394 6.39 2.227 11.142 2.17-6.49 3.565-12.924 4.621-21.03-2.725 3.933-4.587 6.62-6.848 9.888m87.587 314.933c.48 10.548 1.577 21.06 1.522 31.637 1.712-8.028-.812-44.676-3.499-51.465.662 6.717 1.262 12.811 1.977 19.828M426.687 815.588l.199-3.406-.433-.043-3.114 14.664.752.153c.833-3.54 1.665-7.079 2.596-11.368z"
          stroke="#000" stroke-width="7" style="fill: inherit;"></path>
</svg>
